<svg xmlns="http://www.w3.org/2000/svg" viewBox="0 0 32 32">
  <defs>
    <linearGradient id="g" x1="0" y1="0" x2="1" y2="1">
      <stop offset="0%" stop-color="#F59E0B"/>
      <stop offset="100%" stop-color="#D97706"/>
    </linearGradient>
  </defs>
  <rect width="32" height="32" rx="8" fill="url(#g)"/>
  <path d="M22 19.92v2a1.5 1.5 0 0 1-1.64 1.5 14.84 14.84 0 0 1-6.47-2.3 14.62 14.62 0 0 1-4.5-4.5A14.84 14.84 0 0 1 7.08 10 1.5 1.5 0 0 1 8.58 8.5h2a1.5 1.5 0 0 1 1.5 1.29 9.63 9.63 0 0 0 .53 2.1 1.5 1.5 0 0 1-.34 1.59l-.85.85a12 12 0 0 0 4.5 4.5l.85-.85a1.5 1.5 0 0 1 1.59-.34 9.63 9.63 0 0 0 2.1.53A1.5 1.5 0 0 1 22 19.92z" fill="none" stroke="#0A0F1C" stroke-width="1.5" stroke-linecap="round" stroke-linejoin="round"/>
</svg>
